<svg width="48" height="48" viewBox="0 0 48 48" fill="none" xmlns="http://www.w3.org/2000/svg">
<g clip-path="url(#clip0_1_1981)">
<path d="M6.44571 43.4057L0 5.00574L12 0.0685921L19.6114 4.59431L26.6057 0.822878L41.2114 6.44573L32.9829 48L6.44571 43.4057Z" fill="url(#paint0_linear_1_1981)"/>
<path d="M48 16.2514L41.8286 0.96L30.5829 0L13.2343 16.6629L17.8972 38.1257L26.6057 44.2971L48 31.5429L42.72 21.7371L48 16.2514Z" fill="url(#paint1_linear_1_1981)"/>
<path d="M38.4 13.9885L42.72 21.7371L48 16.2514L44.16 6.71996L38.4 13.9885Z" fill="url(#paint2_linear_1_1981)"/>
<path d="M9.18854 9.18855H38.8114V38.8114H9.18854V9.18855Z" fill="black"/>
<path d="M12 33.2571H23.1086V35.1086H12V33.2571Z" fill="white"/>
<path d="M25.0089 18.3354V18.3011C24.8947 14.9414 27.5261 12.1248 30.8858 12.0112C30.9429 12.0093 30.9994 12.008 31.0565 12.008C32.7316 11.9224 34.3687 12.5252 35.5882 13.6768L33.9892 15.7111C33.1954 14.904 32.1053 14.4579 30.9734 14.4769C29.0172 14.6203 27.5406 16.31 27.6612 18.2675V18.3018C27.4975 20.2631 28.955 21.9851 30.9163 22.1488C30.9956 22.1552 31.0755 22.1596 31.1555 22.1609C32.0102 22.1863 32.8496 21.9293 33.5444 21.4306V19.692H30.9905V17.3805H36V22.6647C34.6593 23.9052 32.8998 24.5943 31.073 24.5955C27.7976 24.6736 25.0794 22.0809 25.0013 18.8056C24.9981 18.6489 25.0007 18.4921 25.0089 18.3354Z" fill="white"/>
<path d="M12 18.3771C12 14.88 14.6057 12 18.3771 12C20.7086 12 22.08 12.7543 23.2457 13.92L21.5314 15.9086C20.5714 15.0171 19.6114 14.5371 18.3771 14.5371C16.32 14.5371 14.8114 16.2514 14.8114 18.3771V18.4457C14.8114 20.5714 16.2514 22.2857 18.3771 22.2857C19.7486 22.2857 20.64 21.7371 21.6 20.8457L23.3143 22.56C22.08 23.9314 20.64 24.7543 18.3086 24.7543C14.7429 24.6857 12 21.9429 12 18.3771Z" fill="white"/>
</g>
<defs>
<linearGradient id="paint0_linear_1_1981" x1="17.1895" y1="1.00116" x2="29.6112" y2="45.72" gradientUnits="userSpaceOnUse">
<stop offset="0.285" stop-color="#FFF045"/>
<stop offset="0.941" stop-color="#2086D7"/>
</linearGradient>
<linearGradient id="paint1_linear_1_1981" x1="21.0652" y1="6.67474" x2="42.0789" y2="37.4887" gradientUnits="userSpaceOnUse">
<stop offset="0.14" stop-color="#FFF045"/>
<stop offset="0.366" stop-color="#00CDD7"/>
</linearGradient>
<linearGradient id="paint2_linear_1_1981" x1="41.8848" y1="10.4845" x2="44.6441" y2="20.2587" gradientUnits="userSpaceOnUse">
<stop offset="0.285" stop-color="#00CDD7"/>
<stop offset="0.941" stop-color="#2086D7"/>
</linearGradient>
<clipPath id="clip0_1_1981">
<rect width="48" height="48" fill="white"/>
</clipPath>
</defs>
</svg>
