<svg width="48" height="48" viewBox="0 0 48 48" fill="none" xmlns="http://www.w3.org/2000/svg">
<g clip-path="url(#clip0_1_1981)">
<path d="M6.44571 43.4057L0 5.00574L12 0.0685921L19.6114 4.59431L26.6057 0.822878L41.2114 6.44573L32.9829 48L6.44571 43.4057Z" fill="url(#paint0_linear_1_1981)"/>
<path d="M48 16.2514L41.8286 0.96L30.5829 0L13.2343 16.6629L17.8972 38.1257L26.6057 44.2971L48 31.5429L42.72 21.7371L48 16.2514Z" fill="url(#paint1_linear_1_1981)"/>
<path d="M38.4 13.9885L42.72 21.7371L48 16.2514L44.16 6.71996L38.4 13.9885Z" fill="url(#paint2_linear_1_1981)"/>
<path d="M9.18854 9.18855H38.8114V38.8114H9.18854V9.18855Z" fill="black"/>
<path d="M12 33.2571H23.1086V35.1086H12V33.2571Z" fill="white"/>
<path d="M24.0097 18.8466V18.8096C23.8862 15.1787 26.7299 12.1348 30.3607 12.0121C30.4225 12.01 30.4835 12.0087 30.5452 12.0087C32.3555 11.9161 34.1246 12.5675 35.4426 13.8121L33.7146 16.0105C32.8567 15.1383 31.6787 14.6562 30.4554 14.6768C28.3413 14.8318 26.7457 16.6578 26.8759 18.7732V18.8103C26.699 20.9298 28.2741 22.7908 30.3937 22.9678C30.4794 22.9746 30.5658 22.9794 30.6522 22.9808C31.5758 23.0082 32.483 22.7305 33.2339 22.1915V20.3127H30.4739V17.8146H35.8876V23.5252C34.4387 24.8658 32.5372 25.6105 30.563 25.6119C27.0234 25.6962 24.0858 22.8944 24.0014 19.3547C23.998 19.1854 24.0007 19.016 24.0097 18.8466Z" fill="white"/>
<path d="M12 18.3771C12 14.88 14.6057 12 18.3771 12C20.7086 12 22.08 12.7543 23.2457 13.92L21.5314 15.9086C20.5714 15.0171 19.6114 14.5371 18.3771 14.5371C16.32 14.5371 14.8114 16.2514 14.8114 18.3771V18.4457C14.8114 20.5714 16.2514 22.2857 18.3771 22.2857C19.7486 22.2857 20.64 21.7371 21.6 20.8457L23.3143 22.56C22.08 23.9314 20.64 24.7543 18.3086 24.7543C14.7429 24.6857 12 21.9429 12 18.3771Z" fill="white"/>
</g>
<defs>
<linearGradient id="paint0_linear_1_1981" x1="17.1895" y1="1.00116" x2="29.6112" y2="45.72" gradientUnits="userSpaceOnUse">
<stop offset="0.285" stop-color="#00CDD7"/>
<stop offset="0.941" stop-color="#2086D7"/>
</linearGradient>
<linearGradient id="paint1_linear_1_1981" x1="21.0652" y1="6.67474" x2="42.0789" y2="37.4887" gradientUnits="userSpaceOnUse">
<stop offset="0.14" stop-color="#FFF045"/>
<stop offset="0.366" stop-color="#00CDD7"/>
</linearGradient>
<linearGradient id="paint2_linear_1_1981" x1="41.8848" y1="10.4845" x2="44.6441" y2="20.2587" gradientUnits="userSpaceOnUse">
<stop offset="0.285" stop-color="#00CDD7"/>
<stop offset="0.941" stop-color="#2086D7"/>
</linearGradient>
<clipPath id="clip0_1_1981">
<rect width="48" height="48" fill="white"/>
</clipPath>
</defs>
</svg>
